<?xml version="1.0" encoding="utf-8"?>
<!-- Generator: Adobe Illustrator 24.3.0, SVG Export Plug-In . SVG Version: 6.00 Build 0)  -->
<svg version="1.1" id="Layer_1" xmlns="http://www.w3.org/2000/svg" xmlns:xlink="http://www.w3.org/1999/xlink" x="0px" y="0px"
	 viewBox="0 0 608.44 612" style="enable-background:new 0 0 608.44 612;" xml:space="preserve">
<style type="text/css">
	.st0{fill:#D7A755;}
	.st1{fill:#FFFFFF;}
</style>
<g>
	<g>
		<path class="st0" d="M303.83,148.96c0,0.62-0.31,0.93-0.93,0.93c-0.47,0-0.82-0.2-1.04-0.6c-0.15-0.26-0.35-0.84-0.6-1.75
			c-2.08-7.32-4.67-13.86-7.76-19.62c-4.08-7.65-8.16-13.65-12.24-17.98c-3.75-4.01-6.91-6.01-9.46-6.01c-1.57,0-2.83,0.51-3.8,1.53
			c-0.97,1.02-1.45,2.37-1.45,4.04c0,0.44,0.14,1.06,0.41,1.86s0.41,1.38,0.41,1.75c0,0.44-0.16,1.07-0.49,1.89
			c-0.33,0.82-0.58,1.23-0.76,1.23c-0.58,0-1.15-0.68-1.69-2.02c-0.66-1.57-0.99-3.43-0.99-5.57c0-1.35,0.35-2.48,1.04-3.39
			c0.84-1.13,2.04-2.08,3.61-2.84c1.46-0.77,2.82-1.15,4.1-1.15c3.02,0,6.14,1,9.34,3.01c3.28,2.11,6.38,5.14,9.29,9.07
			c3.97,5.39,6.8,11.77,8.47,19.13c0.91,3.93,1.97,7.81,3.17,11.64C303.37,147.05,303.83,148.67,303.83,148.96 M317.87,108.63
			c0,0.47-0.51,1.78-1.53,3.93c-1.46,2.99-2.64,5.74-3.55,8.25c-0.76,2.15-1.4,5.12-1.91,8.91c-0.25,1.85-0.69,6.05-1.31,12.57
			c-0.11,1.35-0.24,2.7-0.38,4.04c-0.11,0.95-0.33,1.42-0.66,1.42c-0.44,0-0.66-1.04-0.66-3.12c0-0.44,0.02-1.06,0.06-1.86
			c0.04-0.8,0.06-1.4,0.06-1.8v-0.44c0-5.43-0.22-9.93-0.66-13.5c-0.4-3.1-0.82-4.65-1.26-4.65c-0.4,0-0.6,0.6-0.6,1.8
			c0-0.11,0.06,0.58,0.17,2.08c0.11,1.71,0.18,3.61,0.22,5.68c0.04,1.27,0.18,3.2,0.44,5.79c0.22,2.41,0.33,4.23,0.33,5.46
			c0,4.55-0.16,6.83-0.49,6.83h-0.11c-0.69,0-1.13-0.98-1.31-2.95c-0.22-2.92-0.42-5.85-0.6-8.8c-0.29-3.68-0.95-7.14-1.97-10.38
			c-0.37-1.13-1.95-5.17-4.76-12.13c-1.93-4.77-2.9-7.36-2.9-7.76c0-0.51,0.23-0.99,0.68-1.45c0.45-0.46,0.88-0.68,1.28-0.68
			c0.29,0,0.84,0.26,1.64,0.79c0.8,0.53,1.33,0.79,1.58,0.79c0.22,0,0.53-0.29,0.93-0.87c0.55-0.8,1.09-1.6,1.64-2.4
			c1.53-2.15,2.7-3.23,3.5-3.23c0.62,0,1.15,0.2,1.59,0.6c0.22,0.22,0.67,0.76,1.37,1.64c0.11,0.15,0.83,1.13,2.18,2.95
			c0.51,0.73,0.85,1.09,1.04,1.09c0.22,0,0.74-0.28,1.56-0.85c0.82-0.57,1.36-0.85,1.61-0.85c0.69,0,1.33,0.32,1.91,0.96
			C317.58,107.16,317.87,107.87,317.87,108.63 M350.61,109.12c0,1.17-0.11,2.32-0.33,3.44c-0.22,1.13-0.33,1.71-0.33,1.75
			c0,0.07,0.02,0.24,0.06,0.49v0.66c0,1.82-0.44,2.73-1.31,2.73c-1.17,0-1.75-1.07-1.75-3.22c0-1.17,0.25-2.58,0.74-4.24
			c0.49-1.66,0.74-2.72,0.74-3.2c0-0.8-0.56-1.6-1.67-2.4c-1.11-0.8-2.12-1.2-3.03-1.2c-3.57,0-7.5,2.17-11.81,6.51
			c-4.44,4.52-8.89,10.98-13.33,19.4c-1.6,3.06-2.97,6.38-4.1,9.94c-0.95,3.06-1.62,5.72-2.02,7.98c-0.14,0.77-0.25,1.24-0.33,1.42
			c-0.22,0.36-0.64,0.64-1.26,0.82c-0.18-0.29-0.27-0.59-0.27-0.87c0-0.22,0.15-0.93,0.44-2.13c0.37-1.71,0.67-3.22,0.93-4.54
			c0.18-1.97,0.82-5.65,1.92-11.04c2.48-9.65,6.16-17.14,11.04-22.46c4.77-5.14,10.15-7.71,16.12-7.71c2.84,0,5.15,0.75,6.92,2.24
			C349.72,104.99,350.61,106.86,350.61,109.12"/>
		<path class="st0" d="M280.17,309.58c-0.19-0.14-0.52-0.46-1-0.48c-0.42-0.01-0.65,0.15-1.38,0.6c-0.65,0.4-1.15,0.61-1.48,0.61
			c-2.01,0-3.01-1.29-3.01-3.87c0-2.75,0.47-4.12,1.4-4.12c0.67,0,1.45,0.49,2.36,1.48c0.9,0.99,1.56,1.48,1.96,1.48
			c0.2,0,1.52-0.34,3.94-1.03s4.54-1.03,6.35-1.03c1.57,0,3.6,0.38,6.08,1.15c2.88,0.9,5.52,2.09,7.93,3.56
			c1.1,0.67,2.53,1.64,4.27,2.91c1.13,0.84,1.84,1.26,2.11,1.26c0.14,0,0.6-0.35,1.41-1.05c1.37-1.14,2.51-2.08,3.41-2.81
			c3.68-2.88,7.56-4.32,11.64-4.32c1.91,0,4.06,0.28,6.45,0.85c2.39,0.57,3.77,0.85,4.14,0.85c1.7,0,2.91-0.37,3.61-1.1
			c0.57-0.64,1.11-1.26,1.63-1.86c0.52-0.6,0.96-0.91,1.33-0.91c0.7,0,1.05,0.7,1.05,2.11c0,0.8-0.27,1.51-0.8,2.11
			c-0.43,0.5-1.25,1.12-2.46,1.86c-1.05,0.13-2.71,0.29-4.75,0.27c-6-0.06-7.08-1.58-11.36-1.17c0,0-4.05,0.39-8.28,2.96
			c-1.02,0.62-1.81,1.24-3.16,2.71c-0.74,0.8-1.11,1.39-1.11,1.76c0,0.13,0.42,0.75,1.26,1.86c1.1,1.51,2.06,2.96,2.86,4.37
			c1.71,3.01,2.56,5.6,2.56,7.78c0,3.71-0.59,6.49-1.76,8.33c-0.84,1.3-1.93,2.37-3.29,3.19c-1.35,0.82-2.6,1.23-3.74,1.23
			c-2.77,0-5.24-1.14-7.38-3.44c-2.14-2.29-3.21-5.01-3.21-8.16c0-1.24,0.35-2.78,1.05-4.62c0.84-2.11,1.96-4.1,3.36-5.97
			c0.27-0.37,1.01-1.29,2.21-2.76c0.6-0.74,0.9-1.22,0.9-1.45c0-0.47-1.17-1.46-3.51-2.96c-2.14-1.39-4.38-2.38-6.73-2.97
			c-2.69-0.68-4.84-0.66-5.32-0.65c-1.88,0.03-4.46,0.07-7.33,1.05C283.3,309.58,281.25,310.39,280.17,309.58 M303.87,331.25
			c0,1.17,0.4,2.13,1.2,2.89c0.8,0.75,1.76,1.13,2.86,1.13c3.55,0,5.32-2.39,5.32-7.18c0-3.65-0.8-7.36-2.41-11.14
			c-0.2-0.1-0.42-0.15-0.65-0.15c-0.23,0-0.47,0.05-0.7,0.15C305.74,319.98,303.87,324.75,303.87,331.25 M305.62,344.95
			c0-0.5,0.34-0.97,1.03-1.4c0.69-0.44,1.46-0.65,2.33-0.65c1.1,0,1.99,0.28,2.66,0.83c0.67,0.55,1,1.25,1,2.08
			c0,0.77-0.25,1.4-0.75,1.91c-0.5,0.5-1.14,0.75-1.91,0.75c-0.8,0-1.73-0.41-2.79-1.23C306.15,346.41,305.62,345.65,305.62,344.95"
			/>
		<path class="st0" d="M380.4,338.54c-1.55-1.55-3.89-2.45-6.95-2.68l-0.75-0.06l1.23-1.41c0.59-0.37,1.26-0.69,1.98-0.94l1.31-0.47
			c0.38-0.14,0.89-0.51,1.48-1.11c0.99-0.99,1.57-2,1.74-3.01c0.16-0.98-0.06-1.76-0.68-2.38c-0.26-0.27-0.52-0.44-0.77-0.52
			c-0.19-0.07-0.27-0.05-0.28-0.05c0.01,0-0.12,0.2-0.74,1.32c-0.51,0.91-1.07,1.68-1.66,2.28c-2.44,2.43-5.6,3.6-9.49,3.53
			c-1.5-0.04-2.96-0.22-4.36-0.53c-0.87-0.22-1.73-0.45-2.59-0.7c-0.15-0.04-0.23-0.05-0.28-0.05c-0.03,0-0.04,0-0.04,0
			c-0.05,0.06-0.14,0.2-0.05,0.48c0.1,0.3,0.36,0.67,0.79,1.09c0.18,0.18,0.48,0.44,0.9,0.78c0.45,0.37,0.78,0.67,1.03,0.91
			c0.82,0.82,1.7,1.85,2.7,3.15c0.96,1.25,1.61,2.05,1.93,2.36c1.58,1.58,3.08,2.71,4.48,3.36c1.16,0.57,1.96,0.69,2.3,0.34
			c0.18-0.18,0.08-0.63-0.26-1.24c-0.88-1.58-1.4-2.6-1.57-3.01l-0.17-0.43l0.45-0.09c0.64-0.12,1.28,0.02,1.93,0.39
			c0.58,0.34,1.15,0.68,1.7,1.03c3.08,1.65,5.21,2.04,6.15,1.11c0.1-0.09,0.38-0.37,0.09-1.25
			C381.68,340.05,381.17,339.3,380.4,338.54"/>
		<path class="st0" d="M365.68,342.01c-0.89-0.9-1.96-1.84-3.17-2.83c-1.66-1.35-2.02-1.67-2.15-1.8c-0.37-0.37-0.79-0.88-1.24-1.51
			c-0.44-0.61-0.73-0.99-0.89-1.15c-0.19-0.2-0.51-0.39-0.94-0.59c-0.12,0.09-0.23,0.18-0.31,0.26c-0.45,0.45-0.57,0.93-0.37,1.53
			c0.12,0.34,0.37,0.79,0.76,1.32c0.42,0.59,0.63,1,0.68,1.31c0.45,2.69,0.6,4.73,0.45,6.06c-0.16,1.33-0.5,2.49-1.02,3.44
			c-0.43,0.79-1.12,1.68-2.06,2.62c-0.27,0.26-0.75,0.58-1.44,0.95c-0.79,0.42-1.09,0.66-1.22,0.78c-0.39,0.38-0.6,0.79-0.65,1.24
			c-0.05,0.41,0.07,0.75,0.35,1.02v0c0.57,0.57,1.32,0.83,2.22,0.78c0.94-0.04,1.74-0.4,2.45-1.11c0.73-0.72,1.33-1.66,1.78-2.77
			c0.73-1.81,0.8-1.88,0.87-1.95c0.15-0.15,0.33-0.24,0.53-0.26l0.32-0.04l0.09,0.31c1.31,4.4,2.05,5.78,2.44,6.17
			c0.9,0.91,1.97,1.45,3.18,1.6c0.33,0.06,0.61-0.05,0.87-0.31c0.87-0.87,0.94-2.08,0.23-3.68c-0.21-0.48-0.63-1.18-1.23-2.09
			c-0.7-1.01-1.17-1.78-1.45-2.35c-0.57-1.17-0.79-2.13-0.67-2.96l0.09-0.65l0.52,0.41c0.63,0.5,1.07,0.87,1.32,1.12
			c0.08,0.08,0.16,0.18,0.26,0.31l0.22,0.21c0.83,0.83,1.74,1.29,2.71,1.36l0.17-0.17c-0.03-0.81-0.33-1.76-0.89-2.83
			C367.8,344.44,366.86,343.18,365.68,342.01"/>
		<path class="st0" d="M254.73,333.61c0.45-0.37,0.74-0.62,0.9-0.78c0.72-0.72,0.83-1.13,0.83-1.31c0-0.11-0.04-0.2-0.13-0.29
			c0,0.01-0.09,0.01-0.28,0.06c-0.86,0.24-1.72,0.48-2.58,0.7c-1.4,0.31-2.87,0.49-4.36,0.53c-0.13,0-0.27,0-0.4,0
			c-3.69,0-6.75-1.19-9.09-3.53c-0.6-0.6-1.16-1.36-1.66-2.28c-0.56-0.99-0.72-1.27-0.77-1.34c0,0.02-0.08,0.01-0.25,0.07
			c-0.25,0.08-0.51,0.26-0.77,0.52c-0.61,0.62-0.84,1.39-0.68,2.38c0.17,1.01,0.75,2.03,1.74,3.01c0.74,0.74,1.21,1.02,1.48,1.11
			c0.44,0.16,0.87,0.31,1.31,0.47c0.73,0.25,1.4,0.57,1.98,0.94l0.09,0.08l1.14,1.34l-0.75,0.05c-3.06,0.22-5.4,1.12-6.95,2.67
			c-0.77,0.76-1.28,1.51-1.52,2.23c-0.29,0.87-0.01,1.15,0.08,1.24c0.94,0.95,3.02,0.57,6.17-1.12c0.53-0.33,1.1-0.68,1.68-1.01
			c0.5-0.29,0.99-0.43,1.47-0.43c0.16,0,0.31,0.01,0.46,0.04l0.46,0.09l-0.17,0.43c-0.17,0.41-0.7,1.43-1.57,3.01
			c-0.34,0.61-0.43,1.06-0.26,1.24c0.33,0.34,1.15,0.21,2.29-0.34l0.01,0c1.4-0.65,2.9-1.79,4.48-3.36
			c0.32-0.31,0.96-1.11,1.92-2.36c0.99-1.28,1.89-2.34,2.7-3.15C253.94,334.29,254.27,333.99,254.73,333.61"/>
		<path class="st0" d="M261.93,351.09c-0.71-0.38-1.17-0.69-1.43-0.95c-0.94-0.95-1.64-1.83-2.06-2.62
			c-0.52-0.94-0.86-2.1-1.02-3.44c-0.16-1.33-0.02-3.31,0.45-6.05c0.05-0.3,0.26-0.72,0.68-1.31c0.39-0.53,0.64-0.97,0.75-1.32
			c0.2-0.59,0.09-1.08-0.37-1.53c-0.09-0.09-0.19-0.17-0.31-0.26c-0.43,0.2-0.75,0.4-0.94,0.59c-0.12,0.11-0.36,0.4-0.89,1.15
			c-0.45,0.64-0.87,1.14-1.24,1.52c-0.13,0.12-0.49,0.45-2.15,1.8c-1.21,0.98-2.27,1.92-3.17,2.83c-1.18,1.18-2.12,2.43-2.79,3.72
			c-0.57,1.08-0.87,2.03-0.9,2.84l0.17,0.17c0.99-0.07,1.87-0.52,2.72-1.36c0.04-0.05,0.13-0.13,0.25-0.25
			c0.07-0.09,0.16-0.2,0.23-0.27c0.25-0.25,0.68-0.62,1.32-1.12l0.52-0.41l0.09,0.65c0.11,0.81-0.11,1.81-0.67,2.96
			c-0.28,0.57-0.75,1.34-1.45,2.35c-0.6,0.9-1.02,1.6-1.23,2.09c-0.71,1.61-0.64,2.81,0.23,3.68c0.26,0.26,0.55,0.37,0.87,0.32
			c1.2-0.16,2.27-0.69,3.18-1.6c0.39-0.39,1.13-1.78,2.44-6.17l0.09-0.31l0.32,0.04c0.2,0.03,0.38,0.11,0.53,0.26
			c0.08,0.08,0.12,0.12,0.87,1.95c0.45,1.11,1.05,2.05,1.78,2.77c0.7,0.71,1.5,1.07,2.45,1.11c0.93,0.05,1.65-0.21,2.22-0.78
			c0.28-0.28,0.39-0.62,0.34-1.03c-0.05-0.45-0.26-0.85-0.65-1.24C263.02,351.75,262.72,351.51,261.93,351.09"/>
		<path class="st0" d="M354.68,135.34c0.94,0.04,1.74,0.41,2.45,1.11c0.73,0.73,1.33,1.66,1.78,2.77c0.73,1.81,0.8,1.88,0.87,1.95
			c0.15,0.15,0.33,0.24,0.53,0.26l0.32,0.04l0.09-0.31c1.31-4.39,2.05-5.78,2.44-6.17c0.91-0.91,1.97-1.45,3.18-1.6
			c0.36-0.06,0.62,0.05,0.87,0.31c0.87,0.87,0.94,2.08,0.23,3.68c-0.21,0.48-0.63,1.18-1.23,2.09c-0.68,0.99-1.17,1.78-1.45,2.35
			c-0.57,1.17-0.79,2.13-0.67,2.96l0.09,0.65l0.52-0.41c0.63-0.5,1.06-0.86,1.32-1.12c0.08-0.08,0.16-0.18,0.26-0.31l0.22-0.21
			c0.83-0.83,1.74-1.29,2.71-1.36l0.17,0.17c-0.03,0.81-0.33,1.76-0.9,2.83c-0.67,1.3-1.61,2.55-2.79,3.73
			c-0.89,0.9-1.96,1.84-3.17,2.83c-1.24,1.01-1.94,1.59-2.15,1.79c-0.37,0.38-0.79,0.89-1.24,1.52c-0.44,0.61-0.73,0.99-0.89,1.15
			c-0.19,0.19-0.51,0.39-0.94,0.58c-0.12-0.09-0.22-0.17-0.31-0.26c-0.45-0.45-0.57-0.93-0.37-1.53c0.11-0.35,0.37-0.79,0.75-1.32
			c0.42-0.59,0.63-1,0.68-1.31c0.45-2.69,0.6-4.73,0.44-6.05c-0.16-1.34-0.5-2.49-1.02-3.44c-0.43-0.79-1.12-1.68-2.06-2.62
			c-0.26-0.26-0.73-0.57-1.44-0.95c-0.78-0.42-1.09-0.66-1.21-0.78c-0.39-0.39-0.6-0.79-0.65-1.24c-0.05-0.41,0.07-0.75,0.35-1.02
			C353.03,135.56,353.78,135.29,354.68,135.34"/>
		<path class="st0" d="M361.18,156.65c0.45-0.37,0.79-0.67,1.03-0.91c0.81-0.81,1.69-1.84,2.7-3.15c0.98-1.28,1.61-2.05,1.92-2.36
			l0,0c1.57-1.57,3.07-2.7,4.48-3.35c1.16-0.57,1.96-0.69,2.29-0.35c0.18,0.18,0.09,0.63-0.25,1.23c-0.9,1.62-1.41,2.61-1.57,3.02
			l-0.17,0.43l0.45,0.09c0.64,0.11,1.28-0.02,1.93-0.39c0.58-0.34,1.15-0.68,1.7-1.03c3.12-1.67,5.2-2.06,6.15-1.11
			c0.1,0.1,0.38,0.37,0.09,1.25c-0.25,0.71-0.76,1.46-1.52,2.23c-1.55,1.55-3.89,2.45-6.95,2.68l-0.75,0.06l1.22,1.41
			c0.59,0.37,1.26,0.69,1.98,0.94l1.31,0.47c0.38,0.14,0.88,0.51,1.48,1.11c0.99,0.99,1.57,2,1.74,3.01
			c0.16,0.99-0.06,1.76-0.68,2.38c-0.26,0.27-0.52,0.44-0.77,0.52c-0.2,0.07-0.27,0.05-0.28,0.05h0c0.01,0-0.12-0.2-0.74-1.32
			c-0.5-0.91-1.06-1.68-1.66-2.28c-2.44-2.43-5.6-3.62-9.49-3.53c-1.5,0.04-2.96,0.22-4.36,0.53c-0.87,0.22-1.73,0.46-2.59,0.7
			c-0.14,0.04-0.23,0.05-0.28,0.05c-0.02,0-0.04,0-0.04,0c-0.26-0.27-0.02-0.81,0.74-1.58C360.46,157.26,360.76,157,361.18,156.65"
			/>
		<path class="st0" d="M261.93,139.69c-0.71,0.38-1.17,0.69-1.43,0.95c-0.94,0.95-1.64,1.83-2.06,2.62
			c-0.52,0.94-0.86,2.1-1.02,3.44c-0.16,1.33-0.02,3.31,0.45,6.06c0.05,0.3,0.26,0.72,0.68,1.31c0.39,0.53,0.64,0.97,0.75,1.32
			c0.2,0.59,0.09,1.08-0.37,1.53c-0.09,0.09-0.19,0.17-0.31,0.26c-0.43-0.2-0.75-0.4-0.94-0.59c-0.16-0.16-0.46-0.55-0.89-1.15
			c-0.45-0.64-0.87-1.15-1.24-1.52c-0.13-0.12-0.49-0.45-2.15-1.8c-1.21-0.98-2.27-1.93-3.17-2.83c-1.18-1.18-2.12-2.43-2.79-3.72
			c-0.57-1.08-0.87-2.03-0.9-2.84l0.17-0.17c0.99,0.07,1.87,0.52,2.72,1.36c0.04,0.05,0.13,0.13,0.25,0.25
			c0.07,0.09,0.16,0.19,0.23,0.27c0.25,0.25,0.68,0.62,1.32,1.12l0.52,0.41l0.09-0.65c0.11-0.81-0.11-1.81-0.67-2.96
			c-0.28-0.57-0.75-1.34-1.45-2.35c-0.6-0.9-1.02-1.6-1.23-2.09c-0.71-1.61-0.64-2.81,0.23-3.68c0.26-0.26,0.55-0.37,0.87-0.32
			c1.21,0.16,2.28,0.69,3.18,1.6c0.39,0.39,1.13,1.78,2.44,6.17l0.09,0.3l0.31-0.03c0.2-0.02,0.38-0.11,0.54-0.26
			c0.08-0.08,0.13-0.13,0.87-1.95c0.45-1.11,1.05-2.05,1.78-2.77c0.7-0.7,1.5-1.07,2.45-1.11c0.93-0.04,1.65,0.22,2.22,0.78
			c0.28,0.28,0.39,0.61,0.34,1.03c-0.05,0.45-0.26,0.85-0.65,1.24C263.02,139.04,262.72,139.27,261.93,139.69"/>
		<path class="st0" d="M240.24,150.42c0.53,0.34,1.1,0.68,1.68,1.01c0.5,0.29,0.99,0.43,1.47,0.43c0.15,0,0.31-0.01,0.46-0.04
			l0.46-0.09l-0.17-0.43c-0.17-0.42-0.7-1.43-1.57-3.02c-0.34-0.61-0.43-1.06-0.26-1.24c0.33-0.34,1.15-0.22,2.29,0.34l0.01,0
			c1.4,0.66,2.91,1.79,4.48,3.36c0.32,0.32,0.96,1.11,1.92,2.36c0.99,1.28,1.89,2.34,2.7,3.15c0.23,0.24,0.57,0.53,1.02,0.91
			c0.45,0.37,0.74,0.62,0.89,0.78c0.72,0.72,0.83,1.13,0.83,1.31c0,0.11-0.04,0.2-0.12,0.29c0-0.02-0.09-0.02-0.28-0.07
			c-0.86-0.24-1.72-0.48-2.58-0.7c-1.4-0.31-2.87-0.49-4.36-0.53c-0.14,0-0.27,0-0.4,0c-3.69,0-6.75,1.19-9.09,3.53
			c-0.6,0.6-1.16,1.36-1.66,2.28c-0.56,0.99-0.72,1.27-0.77,1.34c0-0.02-0.07-0.01-0.25-0.07c-0.25-0.09-0.51-0.26-0.78-0.52
			c-0.61-0.62-0.83-1.39-0.68-2.38c0.17-1.01,0.75-2.03,1.74-3.01c0.74-0.74,1.21-1.01,1.48-1.11c0.43-0.16,0.87-0.32,1.31-0.47
			c0.73-0.26,1.4-0.57,1.98-0.94l0.09-0.07l1.13-1.34l-0.75-0.05c-3.06-0.22-5.4-1.12-6.95-2.67c-0.76-0.76-1.28-1.51-1.52-2.23
			c-0.29-0.87-0.01-1.15,0.08-1.24C235.01,148.35,237.1,148.73,240.24,150.42"/>
		<path class="st0" d="M286.93,188.93l-4.93,0.4l-0.17-0.04c-1.19-0.27-2.4-0.69-3.61-1.18c0.07,2.55,0.36,4.72,0.87,6.41
			c0.07,0.24,0.17,0.48,0.25,0.72c4.63,1.72,8.94,4.62,12.87,8.74c2.53,2.67,4.76,5.52,6.66,8.48c0.82,0.22,1.55,0.46,2.12,0.74
			c1.5,0.75,2.47,1.9,2.92,3.35c0.05-0.48,0.07-0.98,0.07-1.45c0-0.61-0.07-1.6-0.2-2.95c-0.14-1.45-0.21-2.6-0.21-3.44
			c0-2.88,0.27-6.37,0.79-10.37c0.51-3.89,0.77-6.44,0.77-7.56c0-5.54-0.66-10.19-1.97-13.81c-1.02-2.94-2.18-4.55-3.28-4.55
			c-0.52,0-1.11,0.94-1.56,2.5c-1.26,4.39-2.13,7.13-2.56,8.15l-0.54,1.27l-1.15-0.78c-1.36-0.93-2.31-2.35-2.8-4.21
			c-0.43-1.62-0.84-3.23-1.2-4.83c-2.49-8.28-5.51-12.7-8.74-12.7c-0.3,0-1.2,0-2.18,1.95c-0.82,1.68-1.23,3.89-1.23,6.56
			c0,1.43,0.19,2.87,0.53,4.33c0.8,1.08,1.24,2.4,1.33,3.91c1.26,2.86,3.15,5.75,5.67,8.67L286.93,188.93z"/>
		<path class="st0" d="M316.28,212.06c0.25-1.09,0.54-1.84,0.89-2.33c3.98-5.58,7.33-9.46,9.97-11.54c2.39-1.88,4.79-3.21,7.15-4.02
			c0.52-1.88,0.8-4.26,0.81-7.11c-0.9,0.34-1.06,0.36-1.23,0.36c-0.57,0-1.08-0.17-1.52-0.51l-0.76-0.59l0.46-0.85
			c0.71-1.31,1.34-2.51,1.91-3.61c-0.32-1.23-0.48-2.13-0.48-2.77c0-1.84,0.51-3.41,1.51-4.66c0.87-1.07,1.93-1.69,3.16-1.89
			c0.34-1.06,0.48-1.78,0.48-2.22c0-3.22-0.9-5.94-2.75-8.34c-0.47-0.63-1.09-0.91-1.95-0.91c-2.99,0-5.2,1.96-6.75,6
			c-0.47,1.19-0.98,3.16-1.51,5.85c-0.55,2.96-1.08,5.23-1.6,6.74c-1.08,3.11-2.43,5.23-4.12,6.52l-1.58,1.2l-0.23-1.97
			c-0.24-2.01-0.35-3.43-0.35-4.34c0-0.26,0.03-0.6,0.08-1.02l-0.01-0.75c0-2.89-0.75-5.19-2.3-7.01h-0.44
			c-1.34,1.45-2.46,3.62-3.33,6.46c-1.09,3.46-1.65,7.32-1.65,11.49c0,3.13,0.2,6.69,0.6,10.58c0.56,5.32,0.62,6.55,0.62,7.01
			c0,1.34-0.16,2.95-0.49,4.91c-0.12,0.73-0.21,1.29-0.28,1.77c0.47-0.5,1.02-0.96,1.71-1.31
			C313.26,212.7,314.62,212.33,316.28,212.06"/>
		<path class="st0" d="M346.39,193.38c0.41,0.11,0.84,0.23,1.31,0.37c0.19,0.06,0.32,0.09,0.48,0.14c3.21-1.64,5.56-2.7,7.29-3.37
			c-0.18-1.64-0.95-3.11-2.41-4.45c-1.23-1.12-2.7-1.79-4.3-2.1c-0.08,2.68-0.7,5.46-1.89,8.27
			C346.68,192.68,346.54,193.01,346.39,193.38"/>
		<path class="st0" d="M266.92,255.81l0.96-2.04c-1.83-0.1-3.78-0.4-5.87-1c-0.01,0-0.01,0-0.01,0c-1.41,0.59-2.82,1.04-4.22,1.34
			c-0.01,0.11-0.03,0.2-0.03,0.32c0,2.12,0.96,3.84,2.92,5.26c1.45,1.04,3.27,1.7,5.42,2.01c0-0.14-0.02-0.27-0.02-0.41
			C266.07,258.83,266.34,257.04,266.92,255.81"/>
		<path class="st0" d="M301.3,230.63c-0.75,1.32-1.49,2.64-2.27,3.93c-1.94,3.05-4.23,5.97-6.81,8.69
			c-3.62,3.79-7.56,6.54-11.77,8.31c-0.89,2.36-1.45,4.79-1.67,7.32c1.02-0.39,2.05-0.72,3.05-0.94l0.17-0.04l4.93,0.4l-1.47,1.7
			c-2.45,2.83-4.3,5.65-5.56,8.42c0.86,3.02,0.87,3.26,0.87,3.46c0,0.63-0.3,1.53-1.72,2.24c-0.28,0.14-0.62,0.22-0.94,0.32
			c-0.12,0.83-0.19,1.66-0.19,2.48c0,2.67,0.42,4.88,1.24,6.57c0.97,1.94,1.88,1.94,2.17,1.94c3.22,0,6.25-4.42,8.76-12.77
			c0.35-1.53,0.75-3.14,1.18-4.76c0.5-1.87,1.44-3.29,2.8-4.21l1.15-0.78l0.54,1.27c0.43,1.02,1.3,3.76,2.56,8.15
			c0.45,1.57,1.03,2.51,1.56,2.51c1.1,0,2.26-1.61,3.27-4.53l0.01-0.01c1.31-3.62,1.97-8.27,1.97-13.81c0-1.12-0.26-3.67-0.77-7.56
			c-0.52-4-0.79-7.49-0.79-10.37c0-0.84,0.07-1.99,0.21-3.44c0.13-1.36,0.2-2.34,0.2-2.95c0-1.04-0.09-2.19-0.4-2.97
			c-0.36,0.35-0.77,0.58-0.97,0.69C302.17,230.12,301.74,230.38,301.3,230.63"/>
		<path class="st0" d="M334.23,274.12c-1.42-0.71-1.71-1.61-1.71-2.24c0-0.23,0-0.42,1.1-4.25c0.2-0.7,0.31-1.34,0.45-2.01
			c-0.6-1.18-1.26-2.44-2.03-3.85l-0.45-0.84l0.75-0.59c0.43-0.34,0.94-0.52,1.52-0.52c0.13,0,0.26,0.01,0.7,0.16
			c-0.11-2.5-0.52-4.94-1.29-7.28c-2.03-0.83-4.09-2.05-6.13-3.66c-2.64-2.08-5.99-5.96-9.98-11.55c-0.47-0.65-0.83-1.79-1.14-3.59
			c-0.07-0.41-0.15-0.72-0.23-1.08c-1.68-0.99-3.38-1.97-5.11-2.94c-0.03-0.02-0.09-0.06-0.14-0.08c-0.1,0.43-0.15,0.81-0.15,1.13
			c0,0.39,0.08,1.33,0.46,3.58c0.33,1.94,0.49,3.59,0.49,4.91c0,0.73-0.2,3.02-0.62,7.01c-0.4,3.89-0.61,7.46-0.61,10.58
			c0,4.16,0.56,8.03,1.65,11.48c0.87,2.85,1.99,5.02,3.33,6.48h0.44c1.54-1.83,2.3-4.13,2.3-7.01v-0.89
			c-0.04-0.28-0.07-0.62-0.07-0.88c0-0.9,0.12-2.33,0.35-4.35l0.23-1.98l1.59,1.2c1.69,1.28,3.04,3.41,4.12,6.51
			c0.52,1.5,1.06,3.77,1.61,6.75c0.53,2.68,1.03,4.65,1.5,5.84c1.55,4.04,3.76,6,6.75,6c0.86,0,1.48-0.29,1.94-0.9
			c1.84-2.38,2.76-5.18,2.76-8.35c0-0.44-0.14-1.16-0.48-2.21c-0.23,0.02-0.44,0.08-0.68,0.08
			C336.2,274.79,335.11,274.56,334.23,274.12"/>
		<path class="st0" d="M345.54,254.05l0.83,1.75c0.58,1.24,0.85,3.03,0.85,5.48c0,0.76-0.06,1.47-0.13,2.18
			c2.26-0.1,4.32-0.79,5.96-2.29c1.67-1.53,2.48-3.23,2.48-5.17c0-0.86-0.35-1.54-1.02-2.13c-1.11-0.29-2.23-0.67-3.35-1.14
			c-0.42,0-1.36,0.13-3.47,0.77C346.88,253.73,346.18,253.91,345.54,254.05"/>
		<path class="st0" d="M301.84,217.53c-0.15-0.72-0.47-1.3-1.02-1.76c-0.24-0.2-0.52-0.39-0.84-0.55c-0.26-0.13-0.64-0.25-1-0.36
			c-0.45-0.15-0.97-0.28-1.55-0.4c-0.35-0.07-0.66-0.16-1.06-0.22c-1.82-0.31-2.97-0.68-3.62-1.16c-5.65-4.03-9.43-7.29-11.53-9.96
			c-1.61-2.04-2.83-4.1-3.66-6.13c-0.18-0.44-0.33-0.88-0.47-1.32c-0.05-0.17-0.13-0.34-0.18-0.51c-0.07-0.24-0.13-0.52-0.19-0.77
			c-0.51-1.99-0.78-4.43-0.8-7.29c0-0.1-0.01-0.18-0.01-0.28c0-0.27,0.03-0.6,0.08-0.95c0.05-0.35,0.12-0.73,0.22-1.16
			c0.14-0.63,0.32-1.34,0.57-2.16c0.63-2.11,0.77-3.05,0.77-3.47c0,0,0,0,0-0.01c0-1.33-0.33-2.38-1.01-3.22
			c-0.04-0.06-0.1-0.07-0.14-0.12c-0.6-0.67-1.27-1.02-2.13-1.02c-1.95,0-3.64,0.81-5.17,2.49c-1.51,1.65-2.26,3.61-2.3,5.96
			c0,0.07-0.02,0.13-0.02,0.2c0,0.31,0.04,0.62,0.06,0.93c0.02,0.38,0.03,0.75,0.08,1.13c0.23,1.92,0.76,3.9,1.61,5.92
			c0.35,0.83,0.61,1.47,0.85,2.03c0.19,0.46,0.35,0.84,0.47,1.16c0.21,0.53,0.36,0.91,0.44,1.16c0.15,0.44,0.16,0.58,0.16,0.7
			c0,0.57-0.17,1.08-0.52,1.52l-0.59,0.76l-0.85-0.46c-1.42-0.77-2.68-1.43-3.85-2.03c-0.57-0.29-1.08-0.55-1.6-0.81
			c-0.55-0.28-1.09-0.54-1.58-0.78c-1.44-0.69-2.69-1.26-3.7-1.67c-0.41-0.17-0.76-0.3-1.11-0.43c-0.4-0.15-0.77-0.28-1.09-0.39
			c-1.05-0.34-1.77-0.48-2.21-0.48c-3.17,0-5.98,0.93-8.34,2.75c-0.63,0.47-0.92,1.09-0.92,1.95c0,3,1.96,5.2,6,6.75
			c1.21,0.48,3.17,0.99,5.85,1.51c2.95,0.55,5.23,1.09,6.74,1.61c3.1,1.08,5.23,2.42,6.52,4.12l1.2,1.58l-1.98,0.23
			c-1.97,0.23-3.43,0.35-4.34,0.35c-0.26,0-0.6-0.02-1.02-0.08l-0.75,0.01c-2.89,0-5.19,0.75-7.01,2.29v0.44
			c1.45,1.34,3.62,2.47,6.46,3.33c6.08,1.92,13.08,1.97,22.07,1.04c3.97-0.42,6.27-0.62,7.01-0.62c1.33,0,2.98,0.17,4.91,0.49
			c2.25,0.38,3.19,0.46,3.58,0.46c0.32,0,0.7-0.05,1.13-0.15c0.35-0.08,0.74-0.21,1.16-0.35c0.09-0.03,0.15-0.04,0.24-0.07
			c0.05-0.32,0.07-0.61,0.07-0.87C301.94,218.1,301.89,217.81,301.84,217.53"/>
		<path class="st0" d="M302.03,227.37c-0.09-0.32-0.42-0.56-0.91-0.72c-0.79-0.27-1.95-0.36-3-0.36c-0.61,0-1.59,0.07-2.95,0.2
			c-1.45,0.14-2.6,0.21-3.44,0.21c-2.88,0-6.37-0.27-10.37-0.79c-3.92-0.51-6.46-0.77-7.56-0.77c-5.55,0-10.19,0.67-13.81,1.97
			c-2.94,1.02-4.55,2.18-4.55,3.27c0,0.53,0.94,1.11,2.5,1.56c4.47,1.29,7.14,2.13,8.15,2.56l1.27,0.54l-0.78,1.14
			c-0.92,1.36-2.34,2.31-4.21,2.8c-1.62,0.44-3.23,0.84-4.83,1.2c-8.28,2.49-12.7,5.51-12.7,8.74c0,0.3,0,1.2,1.95,2.18
			c1.67,0.82,3.88,1.23,6.56,1.23c0.82,0,1.64-0.08,2.48-0.19c0.42-0.06,0.84-0.13,1.26-0.22c1-0.21,2.01-0.5,3.02-0.87
			c0.58-0.21,1.16-0.43,1.74-0.7c2.77-1.26,5.59-3.11,8.42-5.56l1.7-1.47l0.39,4.92l-0.04,0.17c-0.22,1-0.55,2.02-0.94,3.05
			c-0.15,0.39-0.32,0.78-0.49,1.17c-0.15,0.33-0.26,0.66-0.42,0.99l-0.08,0.17l-1.4,2.97c-0.29,0.63-0.64,1.92-0.64,4.51
			c0,0.21,0.03,0.39,0.03,0.6c0.01,0.39,0.04,0.77,0.07,1.14c0.03,0.39,0.07,0.77,0.12,1.14c0.31,2.15,0.97,3.97,2.01,5.42
			c1.41,1.97,3.13,2.93,5.25,2.93c0.12,0,0.21-0.02,0.32-0.03c0.45-0.02,0.85-0.08,1.2-0.17c0.24-0.07,0.49-0.13,0.68-0.23
			c0.32-0.16,0.44-0.28,0.48-0.32c-0.04-0.01-0.15-0.42-0.51-1.69c-0.13-0.48-0.3-1.06-0.52-1.81c0,0,0-0.01,0-0.01
			c-0.6-2.09-0.9-4.04-1-5.87c-0.02-0.38-0.09-0.8-0.09-1.16c0-0.02,0-0.04,0-0.05c0-0.44,0.05-0.86,0.07-1.29
			c0.11-2.51,0.52-4.95,1.23-7.31c0.13-0.43,0.27-0.86,0.43-1.29c0.18-0.49,0.38-0.98,0.58-1.47c1.76-4.21,4.51-8.15,8.3-11.77
			c2.72-2.58,5.63-4.86,8.67-6.79c1.32-0.79,2.64-1.53,3.96-2.28c0.62-0.36,1.24-0.73,1.87-1.08c0.11-0.07,0.15-0.1,0.22-0.15
			c0.22-0.15,0.34-0.26,0.34-0.26C302.06,227.44,302.04,227.4,302.03,227.37"/>
		<path class="st0" d="M335.91,177.88c0.37-0.79,0.7-1.5,0.98-2.15c-0.04,0.05-0.1,0.07-0.14,0.12
			C336.3,176.41,336.06,177.11,335.91,177.88"/>
		<path class="st0" d="M368.3,194.39c-2.38-1.84-5.18-2.76-8.35-2.76c-0.44,0-1.16,0.14-2.22,0.49c-0.38,0.12-0.81,0.28-1.3,0.46
			c-0.56,0.21-1.2,0.48-1.91,0.79c-0.64,0.28-1.35,0.61-2.13,0.97c-0.73,0.34-1.52,0.73-2.38,1.16c-0.52,0.26-1.02,0.51-1.6,0.81
			c-1.11,0.57-2.3,1.2-3.61,1.91l-0.85,0.46l-0.59-0.76c-0.35-0.44-0.52-0.95-0.52-1.52c0-0.17,0.01-0.34,0.36-1.24
			c0.11-0.29,0.25-0.65,0.45-1.13c0.13-0.32,0.28-0.69,0.46-1.11c0.19-0.46,0.41-0.98,0.66-1.58c1.1-2.6,1.67-5.15,1.72-7.6
			c0-0.13,0.02-0.26,0.02-0.38c0-0.26-0.04-0.49-0.06-0.73c-0.03-0.38-0.05-0.76-0.11-1.12c-0.3-1.64-1-3.06-2.15-4.31
			c-1.34-1.46-2.81-2.23-4.45-2.41c-0.24-0.03-0.47-0.08-0.72-0.08c-0.19,0-0.35,0.09-0.52,0.12c-0.61,0.11-1.15,0.39-1.61,0.9
			c-0.28,0.65-0.61,1.36-0.98,2.15c-0.07,0.39-0.17,0.75-0.17,1.2c0,0.24,0.06,0.67,0.21,1.34c0.09,0.43,0.24,0.98,0.43,1.66
			c0.05,0.17,0.08,0.29,0.14,0.47c0.14,0.47,0.26,0.91,0.37,1.31c0.1,0.41,0.19,0.78,0.26,1.13c0.09,0.43,0.15,0.81,0.18,1.16
			c0.03,0.24,0.05,0.47,0.05,0.67c0,2.53-0.19,4.75-0.57,6.63c-0.09,0.44-0.2,0.84-0.31,1.25c-0.04,0.15-0.07,0.33-0.12,0.47
			c-0.08,0.27-0.19,0.54-0.29,0.8c-0.81,2.36-2.14,4.76-4.02,7.15c-2.1,2.67-5.88,5.93-11.54,9.97c-0.48,0.35-1.24,0.64-2.32,0.89
			c-0.37,0.09-0.77,0.17-1.21,0.24c-0.02,0-0.04,0.01-0.06,0.01c-0.44,0.07-0.77,0.16-1.15,0.24c-1.01,0.21-1.88,0.45-2.48,0.75
			c-1.33,0.66-1.95,1.68-1.95,3.19c0,0.13,0.02,0.29,0.04,0.43c0.01,0.14,0.01,0.28,0.04,0.44c0.79,0.29,1.43,0.43,1.99,0.51
			c0.18,0.02,0.38,0.07,0.54,0.07c0.27,0,0.82-0.05,1.81-0.19c0.48-0.07,1.04-0.15,1.77-0.27c1.93-0.32,3.58-0.49,4.91-0.49
			c0.75,0,3.04,0.2,7.01,0.62c8.98,0.93,15.99,0.88,22.06-1.04c2.85-0.87,5.02-1.99,6.47-3.34v-0.44c-1.82-1.54-4.12-2.29-7.01-2.29
			h-0.88c-0.28,0.04-0.62,0.07-0.88,0.07c-0.91,0-2.37-0.12-4.34-0.35l-1.98-0.23l1.2-1.59c1.28-1.69,3.41-3.04,6.51-4.12
			c1.52-0.52,3.79-1.06,6.76-1.61c2.66-0.52,4.63-1.03,5.84-1.5c4.04-1.55,6-3.76,6-6.76C369.2,195.47,368.92,194.86,368.3,194.39"
			/>
		<path class="st0" d="M355.68,240.16c-1.53-0.35-3.14-0.75-4.76-1.18c-1.87-0.5-3.29-1.44-4.21-2.8l-0.78-1.15l1.27-0.54
			c1.01-0.43,3.68-1.27,8.15-2.56c1.57-0.45,2.51-1.03,2.51-1.56c0-1.09-1.61-2.25-4.54-3.27l-0.02-0.01
			c-3.61-1.31-8.26-1.97-13.81-1.97c-1.1,0-3.64,0.26-7.56,0.77c-4,0.52-7.49,0.79-10.37,0.79c-0.85,0-1.99-0.07-3.44-0.21
			c-1.35-0.13-2.34-0.2-2.95-0.2c-0.47,0-0.96,0.02-1.44,0.07c-1.03,0.11-1.96,0.36-2.31,0.89c-0.07,0.11-0.12,0.23-0.14,0.37
			c0.06,0,0.2,0.12,0.5,0.28c0.31,0.17,0.61,0.36,0.91,0.53c0.59,0.33,1.18,0.68,1.76,1.02c0.62,0.35,1.23,0.7,1.84,1.06
			c0.42,0.25,0.86,0.49,1.28,0.74c0.08,0.05,0.15,0.11,0.22,0.15c2.98,1.92,5.82,4.14,8.47,6.65c4.12,3.93,7.02,8.25,8.74,12.88
			c0.17,0.46,0.34,0.91,0.49,1.37c0.13,0.41,0.23,0.84,0.35,1.26c0.64,2.37,0.99,4.82,1.02,7.35c0,0.11,0.02,0.22,0.02,0.33
			c0,0.28-0.06,0.6-0.07,0.88c-0.02,0.39-0.06,0.79-0.1,1.19c-0.07,0.66-0.14,1.32-0.27,2.02c-0.11,0.57-0.25,1.16-0.39,1.75
			c-0.1,0.41-0.15,0.79-0.27,1.2c-0.06,0.21-0.1,0.35-0.15,0.54c-0.57,1.99-0.78,2.79-0.84,3.07h0.01c0.06,0,0.19,0.1,0.43,0.22
			c0.53,0.27,1.24,0.4,2.08,0.41c0.05,0,0.08,0.01,0.13,0.01c0.36,0,0.7-0.07,1.04-0.12c0.38-0.06,0.75-0.17,1.11-0.3
			c1.17-0.45,2.21-1.24,3.11-2.5c0.8-1.11,1.37-2.46,1.74-3.99c0.09-0.36,0.15-0.74,0.21-1.12c0.06-0.36,0.12-0.71,0.16-1.09
			c0.07-0.68,0.12-1.37,0.12-2.1c0-2.6-0.35-3.89-0.64-4.52l-1.15-2.43l-0.34-0.72c-0.07-0.15-0.12-0.29-0.18-0.43
			c-0.18-0.38-0.33-0.77-0.48-1.15c-0.49-1.21-0.92-2.43-1.18-3.61l-0.04-0.17l0.39-4.92l1.7,1.47c2.92,2.52,5.82,4.42,8.67,5.67
			c1.51,0.08,2.83,0.52,3.91,1.32c1.46,0.35,2.91,0.53,4.34,0.53c2.67,0,4.88-0.42,6.57-1.24c1.94-0.98,1.94-1.88,1.94-2.17
			C368.46,245.69,364.04,242.67,355.68,240.16"/>
		<path class="st0" d="M379.81,285.23c-1.78-0.48-3.54-1.42-5.16-2.76c-5.98-4.95-7.89-13.94-4.47-20.9
			c3.56-7.23,10.95-11.15,18.1-14.94c4.48-2.37,8.7-4.61,11.95-7.57c8.42-7.64,14.1-15.08,17.26-23.61
			c3.03-8.18,0.64-20.85-8.36-24.79c-2.33-1.02-4.7-1.38-6.55-0.53c-1.93,0.88-3.12,3.12-2.6,4.88c0.09,0.3,0.3,1.02,0.77,1.08
			c0.42,0.07,1.2-0.3,1.83-1.15c0.5-0.67,1.45-0.82,2.12-0.31c0.67,0.5,0.81,1.45,0.32,2.12c-1.28,1.73-3.12,2.62-4.8,2.33
			c-0.87-0.16-2.43-0.78-3.15-3.21c-0.95-3.24,0.91-6.98,4.25-8.5c2.71-1.24,6.16-1.02,9.23,0.6c9.07,4.77,11.53,16.63,9.27,25.88
			c-2.3,9.41-8.7,19.42-17.55,27.46c-3.54,3.21-8.13,5.65-12.57,8c-6.73,3.57-15.12,7.61-18.25,13.96
			c-2.78,5.64,0.28,12.85,5.12,16.87c1.21,1,3.67,2.65,6.56,2.42c2.67-0.22,5.19-2.88,5.1-5.39c-0.05-1.4-1-2.73-2.21-3.08
			c-0.01,0-0.02-0.01-0.03-0.01c-0.75-0.21-1.67,0.29-2.26,0.87c-0.56,0.56-0.69,1.07-0.66,1.19c0.01,0.02,0.13,0.12,0.42,0.21
			c0.08,0.02,0.33-0.1,0.47-0.23c0.61-0.56,1.57-0.53,2.14,0.07c0.57,0.6,0.56,1.54-0.04,2.12c-0.72,0.7-2.02,1.33-3.46,0.95
			c-2.02-0.61-2.98-2.31-2.41-4.21c0.72-2.4,3.8-4.64,6.59-3.88c0.03,0.01,0.06,0.02,0.09,0.03c2.44,0.72,4.28,3.2,4.38,5.88
			c0.15,4.12-3.6,8.19-7.89,8.53C382.22,285.68,381.01,285.56,379.81,285.23"/>
		<path class="st0" d="M380.02,285.12c-6.68-2-10.9-8.7-11.13-15.48c-0.22-6.46,3.33-11.94,8.22-15.87
			c5.36-4.31,11.8-6.92,17.66-10.43c5.82-3.49,10.73-8.48,14.95-13.74c6.75-8.41,12.04-19.12,7.89-29.92
			c-1.69-4.4-4.97-8.14-9.53-9.62c-2.08-0.68-4.59-0.94-6.49,0.36c-1.44,0.98-3.05,3.73-1.61,5.38c0.29,0.33,0.59,0.44,1.02,0.44
			c0.26,0,0.45-0.06,0.7-0.16c0.45-0.19,0.9-0.96,1.25-1.06c0.33,0.14,0.67,0.27,1,0.4c1.06,0.04,1.3,0.46,0.72,1.26
			c-0.17,0.32-0.59,0.71-0.83,0.94c-1.02,0.94-2.79,1.59-4.13,1.12c-1.66-0.58-2.42-2.74-2.49-4.32c-0.15-3.34,2.29-6.36,5.42-7.32
			c4.14-1.26,8.45,0.83,11.41,3.67c8.88,8.55,6.9,22.48,1.87,32.42c-3.15,6.22-7.5,11.82-12.51,16.65
			c-5.07,4.89-11.33,7.91-17.48,11.19c-5.12,2.73-10.85,5.8-14.07,10.83c-3.06,4.79-1.84,10.68,1.38,15.08
			c2.45,3.34,7.03,7.07,11.48,5.43c2.19-0.81,4.32-3.22,3.85-5.7c-0.27-1.43-1.55-2.88-3.11-2.81c-0.82,0.04-3.43,1.44-2.59,2.38
			c0.2,0.22,0.56,0.2,0.82,0.23c0.26,0.03,0.4-0.25,0.61-0.27c0.84-0.07,2.03,0.15,1.84,1.23c-0.27,1.5-1.74,1.26-2.86,1.17
			c-1.45-0.12-1.79,0.18-2.46-1c-0.23-0.4-0.35-0.84-0.38-1.29c-0.05-0.73,0.16-1.46,0.51-2.1c1.2-2.23,4.2-3.81,6.61-2.58
			c3.23,1.65,4.07,5.75,2.57,8.84c-1.9,3.92-6.04,5.61-10.22,4.62c-0.32-0.07-0.73,0.16-0.23,0.27c2.77,0.66,5.58,0.52,8-1.13
			c2.17-1.48,3.87-3.95,3.96-6.64c0.17-4.83-4.98-8.48-9.24-5.81c-1.98,1.25-3.74,4.04-2.06,6.21c1.1,1.43,3.21,1.85,4.84,1.18
			c1.74-0.72,2.51-3.17,0.17-3.6c-0.23-0.04-0.52-0.05-0.75-0.01c0.02,0-1.36,0.6-0.91,0.65c-1.03-0.11,1.27-1.83,1.19-1.79
			c1.59-0.75,2.9,1.28,2.97,2.7c0.08,1.74-1.12,3.44-2.51,4.38c-2.55,1.72-5.75,0.62-8-1.08c-2.6-1.97-4.63-4.8-5.73-7.86
			c-1.14-3.17-1.18-6.66,0.43-9.67c1.6-2.99,4.29-5.3,7.03-7.22c5.8-4.04,12.44-6.68,18.41-10.46c6.15-3.89,11.25-9.5,15.34-15.47
			c6.73-9.83,11.42-23.05,5.39-34.37c-2.46-4.61-7.05-8.6-12.45-8.93c-5.09-0.31-10.69,3.82-9.06,9.43c0.55,1.89,2,3.31,4.01,3.41
			c1.76,0.09,4.96-1.32,4.98-3.39c0.02-1.6-1.99-2.1-3.13-1.36c-0.7,0.45-1.38,1.61-2.12,0.76c-0.4-0.45-0.21-1.58-0.07-2.1
			c0.86-3.22,4.47-3.83,7.29-2.91c6.04,1.98,9.45,7.94,10.4,13.92c0.96,6.06-0.65,11.56-3.5,16.89
			c-3.44,6.45-8.33,11.99-13.65,16.95c-5.6,5.22-12.69,8.06-19.19,11.93c-5.37,3.2-10.67,7.43-12.74,13.56
			c-1.94,5.75-0.59,12.48,3.37,17.07c1.94,2.24,4.4,3.9,7.24,4.75C379.83,285.41,380.48,285.26,380.02,285.12"/>
		<path class="st0" d="M410.53,258.3c-1.66-0.44-3.08-1.63-3.54-3.53c-0.3-1.24-0.09-2.62,0.7-3.63c0.79-1,2.17-1.54,3.4-1.2
			c0.43,0.12,0.84,0.35,1.1,0.71c0.42,0.57,0.36,1.45-0.13,1.96c-0.49,0.51-1.36,0.61-1.95,0.21c-0.5,0.99,0.21,2.3,1.25,2.68
			c1.04,0.39,2.25,0.02,3.13-0.65c3.23-2.45,2.06-7.32-1.46-8.83c-2-0.86-4.45-0.55-6.57-0.42c-1.84,0.12-3.68,0.48-5.48,0.83
			c-3.68,0.71-7.32,1.64-10.99,2.4c-0.82,0.17,2.45-1.56,2.28-2.38c-0.17-0.82,0.36-1.62,1.18-1.79c4.26-0.88,8.69-1.36,13.17-1.41
			c3.32-0.04,5.93,0.57,7.97,1.89c2.21,1.42,3.64,3.86,3.75,6.37c0.1,2.3-0.88,4.36-2.74,5.79
			C414.13,258.42,412.21,258.74,410.53,258.3"/>
		<path class="st0" d="M410.78,258.15c-1.94-0.59-3.45-2.19-3.54-4.29c-0.05-1.07,0.26-2.21,1.04-2.99
			c0.87-0.88,2.77-1.26,3.55-0.13c0.54,0.77,0.19,2.75-1.42,1.95c-0.15-0.07-0.61-0.05-0.68,0.15c-0.77,2.16,1.56,3.3,3.36,2.87
			c1.9-0.46,3.37-2.14,3.61-4.06c0.26-2.04-0.77-4.1-2.46-5.24c-2.36-1.59-5.61-1.15-8.28-0.92c-3.32,0.29-6.6,1.09-9.85,1.82
			c-1.82,0.41-3.9,0.62-5.65,1.26c-0.86,0.32-0.13,0.1,0.27-0.21c0.29-0.22,0.59-0.42,0.87-0.65c0.51-0.41,0.83-0.73,1.01-1.32
			c0.23-0.78-0.12-0.81,0.73-1.32c0.6-0.36,0.97-0.44,1.63-0.56c1.04-0.19,2.08-0.35,3.12-0.49c3.64-0.49,7.59-0.94,11.26-0.45
			c3.71,0.5,7.27,2.54,8.32,6.35C418.86,254.2,415.61,259.24,410.78,258.15c-0.19-0.04-0.88,0.21-0.5,0.3
			c2.95,0.66,5.92-0.55,7.48-3.18c1.79-3.03,0.84-6.93-1.64-9.28c-2.5-2.37-6.13-2.92-9.44-2.89c-4.33,0.04-9.07,0.28-13.27,1.42
			c-0.46,0.13-0.88,0.29-1.19,0.66c-0.46,0.56-0.17,1.14-0.46,1.72c-0.42,0.82-2.03,1.13-2.28,1.96c-0.02,0.05,0.01,0.09,0.06,0.11
			c0.6,0.24,1.54-0.2,2.14-0.33c1.75-0.38,3.48-0.79,5.23-1.18c3.83-0.86,7.66-1.64,11.59-1.82c3.23-0.15,6.59,0.83,7.38,4.35
			c0.26,1.16,0.12,2.39-0.47,3.43c-0.19,0.34-0.43,0.65-0.7,0.92c-0.76,0.78-1.03,0.68-2.24,0.68c-1.13,0-1.61,0.18-2.01-0.86
			c-0.18-0.47-0.15-0.88,0.02-1.36c-0.23,0.05-0.45,0.1-0.68,0.14c1.13,0.56,2.93,0.19,3.04-1.31c0.14-1.85-2.21-2.18-3.55-1.79
			c-1.9,0.56-2.97,2.4-2.77,4.35c0.22,2.15,1.77,3.65,3.77,4.25C410.47,258.5,411.16,258.27,410.78,258.15"/>
		<path class="st0" d="M233.48,285.23c1.78-0.48,3.54-1.42,5.16-2.76c5.98-4.95,7.89-13.94,4.47-20.9
			c-3.56-7.23-10.95-11.15-18.1-14.94c-4.47-2.37-8.7-4.61-11.96-7.57c-8.42-7.64-14.1-15.08-17.26-23.61
			c-3.03-8.18-0.64-20.85,8.36-24.79c2.33-1.02,4.7-1.38,6.56-0.53c1.93,0.88,3.11,3.12,2.6,4.88c-0.09,0.3-0.3,1.02-0.77,1.08
			c-0.42,0.07-1.2-0.3-1.83-1.15c-0.5-0.67-1.45-0.82-2.12-0.31c-0.67,0.5-0.81,1.45-0.32,2.12c1.28,1.73,3.12,2.62,4.8,2.33
			c0.87-0.16,2.43-0.78,3.15-3.21c0.96-3.24-0.91-6.98-4.25-8.5c-2.71-1.24-6.16-1.02-9.23,0.6c-9.07,4.77-11.53,16.63-9.27,25.88
			c2.3,9.41,8.7,19.42,17.55,27.46c3.54,3.21,8.13,5.65,12.57,8c6.72,3.57,15.12,7.61,18.25,13.96c2.78,5.64-0.28,12.85-5.12,16.87
			c-1.21,1-3.67,2.65-6.56,2.42c-2.67-0.22-5.19-2.88-5.1-5.39c0.05-1.4,1-2.73,2.21-3.08c0.01,0,0.02-0.01,0.03-0.01
			c0.76-0.21,1.68,0.29,2.26,0.87c0.56,0.56,0.69,1.07,0.66,1.19c-0.01,0.02-0.13,0.12-0.42,0.21c-0.08,0.02-0.33-0.1-0.47-0.23
			c-0.61-0.56-1.57-0.53-2.14,0.07c-0.57,0.6-0.56,1.54,0.04,2.12c0.72,0.7,2.03,1.33,3.46,0.95c2.02-0.61,2.98-2.31,2.41-4.21
			c-0.72-2.4-3.8-4.64-6.59-3.88c-0.03,0.01-0.06,0.02-0.09,0.03c-2.44,0.72-4.28,3.2-4.38,5.88c-0.15,4.12,3.6,8.19,7.89,8.53
			C231.08,285.68,232.29,285.56,233.48,285.23"/>
		<path class="st0" d="M233.78,285.38c6.15-1.84,10.35-7.59,11.21-13.83c0.87-6.3-1.84-12.09-6.38-16.35
			c-4.9-4.6-11.17-7.37-16.99-10.58c-6.92-3.82-12.64-9.16-17.55-15.34c-3.89-4.89-7.72-10.88-8.83-17.14
			c-0.98-5.53,0.03-11.78,3.3-16.41c1.7-2.41,4.05-4.31,6.84-5.29c2.8-0.98,6.63-0.66,7.52,2.68c0.15,0.56,0.28,1.58-0.08,2.1
			c-0.96,1.38-1.57-0.28-2.27-0.7c-1.44-0.85-3.58,0.12-2.78,1.98c0.74,1.73,3.19,2.9,5.01,2.8c2.12-0.12,3.5-1.85,3.91-3.83
			c0.53-2.61-0.66-5.3-2.64-6.99c-4.25-3.61-10.44-2.04-14.4,1.16c-9.49,7.66-8.49,21.69-3.92,31.7c3,6.59,7.39,12.53,12.49,17.64
			c5.11,5.12,11.26,8.36,17.59,11.71c5.74,3.03,12.9,6.55,15.75,12.78c2.75,6.03-0.89,13.55-5.99,17.13
			c-2.19,1.54-5.17,2.6-7.68,0.97c-1.68-1.08-2.99-3.34-2.29-5.35c0.28-0.8,1.04-1.84,1.94-2c0.41-0.07,1.99,0.68,2.17,1.43
			c0.32,1.34-0.51,0.46-0.13,0.4c0.13-0.02-0.83-0.42-0.88-0.43c-0.33-0.08-0.61-0.13-0.96-0.06c-2.52,0.5-0.98,3.03,0.54,3.64
			c1.8,0.72,4.16,0.16,5.03-1.7c1.07-2.29-0.87-4.74-2.78-5.82c-1.84-1.04-4.01-1.16-5.83-0.03c-5.18,3.19-3.02,10.22,1.45,12.85
			c2.35,1.39,4.95,1.51,7.56,0.89c0.39-0.09-0.28-0.37-0.47-0.33c-4.53,1.07-9.17-1.07-10.56-5.69c-0.93-3.11,0.54-6.89,3.76-7.98
			c2.44-0.82,5.34,1.03,6.18,3.36c0.28,0.78,0.32,1.58,0.03,2.35c-0.63,1.65-3.62,3.28-5.12,1.18c-0.37-0.52-0.6-1.52-0.03-2
			c0.37-0.31,1.41-0.04,1.76,0.03c0.16,0.03,0.29,0.15,0.47,0.16c0.24,0.02,0.66,0.01,0.8-0.23c0.61-1.04-2.15-2.37-2.91-2.39
			c-1.89-0.06-3.1,2.04-2.94,3.74c0.48,5.3,6.88,5.97,10.57,3.89c4.52-2.56,7.9-8.08,7.98-13.29c0.08-5.58-4.17-9.7-8.44-12.67
			c-5.36-3.72-11.42-6.28-17.01-9.6c-6.28-3.74-11.46-9.04-15.72-14.94c-6.93-9.6-12.04-22.38-7.01-33.98
			c2.51-5.8,9.1-12.16,15.97-9.79c3.43,1.18,5.86,4.94,4.8,8.58c-0.36,1.24-1.17,2.54-2.46,2.97c-1.43,0.48-3.18-0.25-4.16-1.29
			c-0.44-0.47-0.85-0.88-0.81-1.54c-0.14-0.93,0.51-1.26,1.96-0.98c0.13,0.15,0.26,0.3,0.39,0.45c0.84,0.54,1.87,1.44,2.67,0.33
			c1.3-1.8-0.46-4.48-2.01-5.41c-4.07-2.47-9.64,0.64-12.42,3.74c-3.29,3.67-4.76,8.76-4.82,13.62c-0.07,5.41,1.98,10.34,4.66,14.96
			c3.32,5.73,7.77,10.73,12.58,15.24c4.86,4.56,10.72,7.36,16.51,10.53c5.88,3.22,11.97,7.09,14.93,13.38
			c2.62,5.58,1.87,12.42-1.66,17.43c-1.95,2.78-4.76,4.9-8.02,5.88C232.93,285.16,233.59,285.44,233.78,285.38"/>
		<path class="st0" d="M202.76,258.3c1.66-0.44,3.08-1.63,3.54-3.53c0.31-1.24,0.09-2.62-0.69-3.63c-0.79-1-2.17-1.54-3.4-1.2
			c-0.43,0.12-0.84,0.35-1.1,0.71c-0.42,0.57-0.36,1.45,0.13,1.96c0.49,0.51,1.36,0.61,1.95,0.21c0.5,0.99-0.21,2.3-1.25,2.68
			c-1.04,0.39-2.25,0.02-3.13-0.65c-3.23-2.45-2.06-7.32,1.46-8.83c2-0.86,4.45-0.55,6.57-0.42c1.84,0.12,3.68,0.48,5.48,0.83
			c3.68,0.71,7.32,1.64,10.99,2.4c0.82,0.17-2.45-1.56-2.28-2.38c0.17-0.82-0.36-1.62-1.18-1.79c-4.26-0.88-8.69-1.36-13.17-1.41
			c-3.32-0.04-5.92,0.57-7.97,1.89c-2.21,1.42-3.64,3.86-3.75,6.37c-0.1,2.3,0.88,4.36,2.75,5.79
			C199.17,258.42,201.09,258.74,202.76,258.3"/>
		<path class="st0" d="M203.06,258.46c2.03-0.61,3.62-2.23,3.74-4.43c0.1-1.84-0.91-3.54-2.68-4.14c-1.33-0.45-3.77-0.23-3.65,1.68
			c0.1,1.47,1.87,1.99,3.02,1.42c-0.22-0.08-0.44-0.15-0.66-0.23c0.29,0.81,0.09,1.65-0.59,2.23c-0.76,0.65-2.68,0.17-3.39-0.38
			c-0.27-0.21-0.5-0.48-0.71-0.76c-0.76-1.05-1-2.39-0.76-3.66c0.66-3.43,3.86-4.63,7.01-4.56c3.68,0.09,7.29,0.79,10.88,1.57
			c1.74,0.38,3.48,0.79,5.23,1.18c0.79,0.18,2.48,0.92,3.25,0.62c0.04-0.02,0.09-0.05,0.07-0.1c-0.16-0.54-1.31-1.04-1.72-1.39
			c-0.63-0.55-0.54-0.77-0.68-1.5c-0.1-0.53-0.39-0.93-0.85-1.21c-1.36-0.83-3.6-0.84-5.15-1.05c-2.23-0.31-4.47-0.51-6.72-0.6
			c-3.58-0.15-7.42-0.11-10.49,1.99c-2.88,1.97-4.45,5.84-3.12,9.18C196.36,257.5,199.75,259.21,203.06,258.46
			c0.25-0.06-0.39-0.37-0.59-0.33c-4.49,1.01-7.78-3.41-7.01-7.55c0.6-3.18,3.06-5.47,6.05-6.45c3.38-1.11,7.18-0.75,10.68-0.44
			c1.9,0.17,3.8,0.41,5.68,0.74c0.85,0.15,2.23,0.18,2.66,1c0.24,0.45,0.04,0.94,0.28,1.38c0.32,0.58,1.02,1,1.53,1.38
			c0.07,0.05,0.95,0.61,0.92,0.47c-0.05-0.2-2.66-0.57-2.88-0.62c-3.6-0.81-7.19-1.69-10.84-2.28c-4.33-0.69-11.77-1.66-12.89,4.21
			c-0.43,2.22,0.69,4.46,2.74,5.43c1.83,0.86,5.11,0.11,4.17-2.53c-0.07-0.18-0.49-0.31-0.66-0.23c-1.06,0.53-2.01-0.61-1.6-1.59
			c0.55-1.31,2.52-1.19,3.48-0.44c1,0.79,1.38,2.19,1.26,3.41c-0.21,2.05-1.66,3.52-3.58,4.1
			C202.21,258.21,202.86,258.52,203.06,258.46"/>
		<path class="st0" d="M336.21,309.54c-0.59-0.22-0.96-0.84-0.84-1.48c0.14-0.71,0.83-1.18,1.54-1.04
			c5.98,1.15,9.92-1.94,14.49-5.52c0.78-0.61,1.56-1.23,2.37-1.83c4.47-3.34,10.82-4.46,14.31-0.15c1.66,2.04,2.38,5.26,0.57,7.45
			c-1.37,1.66-3.8,1.89-5.56,0.53c-0.57-0.45-0.68-1.27-0.23-1.84c0.45-0.57,1.26-0.68,1.84-0.23c1.11,0.87,2.33-0.18,2.38-1.39
			c0.05-1-0.43-2.1-1.05-2.87c-3.02-3.74-8.72-2.51-11.98,0.13c-5.21,4.2-10.27,9.72-17.64,8.3
			C336.34,309.58,336.28,309.57,336.21,309.54"/>
		<path class="st0" d="M336.48,309.45c-0.2-0.17-0.4-0.34-0.59-0.51c-0.4-0.74-0.18-1.16,0.66-1.27c1.1-0.58,0.49-0.3,1.44-0.34
			c0.55-0.02,1.11,0.09,1.67,0.08c1.35-0.02,2.69-0.27,3.96-0.72c2.86-1,5.3-2.92,7.66-4.76c2.76-2.16,5.49-4.38,9.07-4.94
			c3.78-0.59,7.53,1.24,8.69,5.05c0.49,1.62,0.38,3.52-0.76,4.86c-0.99,1.17-2.67,1.53-4.13,0.99c-0.73-0.27-1.41-1.01-1.06-1.81
			c0.39-0.91,1.11-0.44,1.79-0.32c1.94,0.35,2.99-1.07,2.37-3.01c-1.52-4.77-7.71-4.7-11.39-2.9c-2.91,1.42-5.21,4.05-7.77,5.98
			c-3.22,2.43-7.5,4.77-11.68,3.59c-0.22-0.06-0.87,0.1-0.4,0.24c6.68,1.87,12.42-3.3,17.11-7.22c3.18-2.66,8.27-5.31,11.97-1.87
			c0.81,0.75,1.5,1.82,1.6,2.94c0.05,0.55,0.01,1.27-0.45,1.67c-1.13,0.96-1.01,0.04-1.71-0.07c-0.86-0.14-1.86-0.15-2.24,0.86
			c-0.88,2.36,3.43,2.82,4.82,2.36c3.25-1.08,3.52-5,2.11-7.63c-3.13-5.85-10.83-4.57-15.39-1.39c-3.74,2.61-7.08,6.23-11.63,7.44
			c-1.53,0.41-3.05,0.43-4.63,0.25c-0.6-0.07-1.16-0.24-1.73,0.02c-1.3,0.59-0.94,2.03,0.09,2.63
			C336.1,309.73,336.83,309.65,336.48,309.45"/>
		<path class="st0" d="M280.64,309.54c0.59-0.22,0.96-0.84,0.84-1.48c-0.14-0.71-0.83-1.18-1.54-1.04
			c-5.98,1.15-9.92-1.94-14.49-5.52c-0.78-0.61-1.56-1.23-2.37-1.83c-4.47-3.34-10.82-4.46-14.31-0.15
			c-1.66,2.04-2.38,5.26-0.57,7.45c1.37,1.66,3.81,1.89,5.56,0.53c0.57-0.45,0.68-1.27,0.23-1.84c-0.45-0.57-1.26-0.68-1.84-0.23
			c-1.11,0.87-2.33-0.18-2.38-1.39c-0.05-1,0.43-2.1,1.05-2.87c3.02-3.74,8.72-2.51,11.98,0.13c5.21,4.2,10.27,9.72,17.64,8.3
			C280.5,309.58,280.57,309.57,280.64,309.54"/>
		<path class="st0" d="M280.95,309.65c1.04-0.61,1.29-1.94,0.1-2.59c-1.21-0.65-3.03,0.09-4.31,0.02
			c-4.58-0.27-8.21-3.48-11.66-6.17c-4.38-3.42-11.72-6.95-16.37-1.83c-2.06,2.27-2.99,6.42-0.2,8.55c1.47,1.12,4.79,1.47,5.91-0.4
			c0.54-0.92-0.04-1.9-0.99-2.17c-0.49-0.14-0.63,0-1.09,0.01c-0.19,0-0.34,0.24-0.51,0.25c-1.71,0.09-1.86-1.03-1.57-2.25
			c1.21-5.1,7.8-4.6,11.25-2.41c3.48,2.21,6.18,5.46,9.84,7.46c2.81,1.53,6.37,2.46,9.55,1.57c0.38-0.11-0.32-0.33-0.51-0.27
			c-7.31,2.05-12.67-5.01-17.92-8.64c-3.4-2.35-9.11-3.36-12.02,0.32c-1.07,1.36-1.83,4.48,0.65,4.78c0.33,0.04,0.55-0.04,0.88-0.07
			c1.05-0.11-0.24-0.69,1.19,0.16c0.93,0.55,1,0.88-0.12,1.69c-2.73,1.99-5.41-0.93-5.53-3.48c-0.15-3.28,2.38-6.29,5.49-7.07
			c3.9-0.98,7.7,1.04,10.69,3.34c2.74,2.11,5.4,4.48,8.61,5.86c1.25,0.54,2.58,0.91,3.94,1.05c0.71,0.07,1.42,0.08,2.13,0.04
			c0.3-0.02,0.6-0.09,0.9-0.09c0.58-0.11,1.14,0.01,1.68,0.36c0.34,0.74,0.13,1.32-0.64,1.76
			C280.08,309.57,280.78,309.76,280.95,309.65"/>
		<path class="st0" d="M334.74,307.16c2.2,1.84,3.57,3.72,4.17,5.73c0.65,2.18,0.22,4.59-1.13,6.3c-1.23,1.57-3.03,2.37-5.06,2.26
			c-1.58-0.09-3.02-0.96-3.87-2.19c-0.84-1.23-1.1-2.8-0.34-4.32c0.5-0.98,1.42-1.77,2.5-1.99c1.08-0.22,2.3,0.21,2.91,1.13
			c0.21,0.32,0.35,0.7,0.32,1.09c-0.05,0.61-0.58,1.15-1.19,1.21c-0.61,0.06-1.23-0.37-1.4-0.96c-0.89,0.37-1.16,1.62-0.69,2.47
			c0.47,0.84,1.46,1.28,2.42,1.34c3.5,0.21,5.47-3.65,4.01-6.62c-0.83-1.69-2.61-2.87-4.08-3.97c-1.27-0.96-2.68-1.76-4.06-2.55"/>
		<path class="st0" d="M334.41,307.21c1.7,1.44,3.25,3.15,4,5.29c0.77,2.2,0.46,4.77-0.99,6.62c-1.46,1.85-4.12,2.81-6.33,1.74
			c-2.24-1.1-3.42-3.91-2.05-6.14c0.78-1.26,2.38-2.17,3.79-1.32c0.57,0.35,1.1,1.02,1.04,1.73c-0.03,0.31-0.25,0.81-0.57,0.94
			c-0.24,0.1-0.81-0.01-0.99-0.17c-0.16-0.13-0.23-0.31-0.29-0.5c-0.07-0.2-0.55-0.17-0.69-0.09c-1.63,0.83-0.98,2.91,0.38,3.61
			c1.34,0.7,3.14,0.6,4.42-0.2c1.28-0.8,2.05-2.24,2.13-3.73c0.1-1.85-0.91-3.37-2.24-4.57c-1.95-1.75-4.22-3.14-6.49-4.43
			c-0.17-0.1-0.9-0.03-0.55,0.17c2.07,1.18,4.07,2.44,5.91,3.96c1.51,1.25,2.75,2.84,2.6,4.9c-0.12,1.63-1.1,3.24-2.67,3.83
			c-1.14,0.43-2.64,0.27-3.38-0.79c-0.57-0.82-0.4-2.07,0.53-2.54c-0.23-0.03-0.46-0.06-0.69-0.1c0.38,1.02,1.74,1.44,2.66,0.85
			c1.25-0.8,0.53-2.36-0.47-3c-2.51-1.58-5.63,0.48-5.78,3.27c-0.17,3.09,2.87,5.15,5.7,5.06c2.99-0.1,5.41-2.2,6.04-5.12
			c0.82-3.79-1.61-7.06-4.35-9.38C334.92,306.98,334.19,307.03,334.41,307.21"/>
		<path class="st0" d="M282.18,307.16c-2.2,1.84-3.57,3.72-4.17,5.73c-0.65,2.18-0.21,4.59,1.13,6.3c1.23,1.57,3.03,2.37,5.06,2.26
			c1.58-0.09,3.02-0.96,3.87-2.19c0.84-1.23,1.1-2.8,0.34-4.32c-0.5-0.98-1.42-1.77-2.5-1.99c-1.08-0.22-2.3,0.21-2.91,1.13
			c-0.21,0.32-0.35,0.7-0.32,1.09c0.05,0.61,0.58,1.15,1.19,1.21c0.61,0.06,1.24-0.37,1.4-0.96c0.89,0.37,1.16,1.62,0.69,2.47
			c-0.47,0.84-1.46,1.28-2.42,1.34c-3.5,0.21-5.47-3.65-4.01-6.62c0.83-1.69,2.61-2.87,4.08-3.97c1.27-0.96,2.68-1.76,4.06-2.55"/>
		<path class="st0" d="M281.84,307.13c-2.38,2.02-4.58,4.74-4.5,8.03c0.08,3.08,2.18,5.87,5.29,6.36c2.77,0.44,5.94-1.02,6.52-3.98
			c0.56-2.85-2.08-5.57-4.94-4.62c-1.18,0.4-2.68,1.93-1.51,3.13c0.87,0.89,2.51,0.45,2.93-0.67c-0.23,0.05-0.45,0.09-0.68,0.14
			c0.93,0.47,1.09,1.72,0.52,2.54c-0.77,1.1-2.35,1.19-3.49,0.71c-1.51-0.63-2.44-2.19-2.55-3.79c-0.15-2.06,1.1-3.65,2.61-4.89
			c1.84-1.52,3.84-2.78,5.91-3.96c0.34-0.19-0.39-0.23-0.56-0.13c-2.01,1.14-3.93,2.37-5.74,3.81c-1.46,1.16-2.82,2.6-2.97,4.56
			c-0.25,3.23,2.76,5.8,5.9,4.8c0.85-0.27,1.69-0.85,1.91-1.76c0.21-0.85-0.14-1.73-0.92-2.13c-0.15-0.08-0.61-0.05-0.68,0.14
			c-0.28,0.76-1.1,0.99-1.61,0.3c-0.42-0.57-0.21-1.3,0.2-1.81c1.01-1.26,2.73-0.96,3.78,0.06c1.85,1.78,1.43,4.68-0.44,6.26
			c-1.98,1.67-4.91,1.25-6.72-0.46c-1.7-1.61-2.36-4.14-1.85-6.4c0.56-2.53,2.34-4.55,4.26-6.18
			C282.71,307.02,282,307,281.84,307.13"/>
	</g>
	<polygon class="st0" points="173.22,509.47 173.22,511.54 181.55,511.54 175.24,528.71 177.55,528.71 183.86,511.54 183.86,509.47 
			"/>
	<g>
		<path class="st0" d="M191.3,528.71v-2.07l4.76-6.61c1.67-2.31,2.58-4.03,2.58-5.78c0-1.72-1.07-3.06-3.22-3.06
			c-2.23,0-3.89,1.48-3.89,1.48v-2.02c0,0,1.58-1.45,4.38-1.45c3.33,0,5.11,2.1,5.11,4.78c0,2.61-1.53,4.84-3.17,7.15l-3.95,5.51
			h7.98v2.07H191.3z"/>
		<path class="st0" d="M209.74,527.82v-2.02c0,0,1.85,1.18,4.19,1.18c2.29,0,4.09-1.26,4.09-3.92c0-2.23-1.24-4.19-4.78-4.19
			c-0.78,0-2.07,0.05-2.69,0.16v-9.56h8.76v2.07h-6.45v5.37c5.16-0.3,7.52,2.2,7.52,5.88c0,3.63-2.42,6.18-6.21,6.18
			C211.16,528.98,209.74,527.82,209.74,527.82"/>
		<path class="st0" d="M228.36,527.82v-2.02c0,0,1.85,1.18,4.19,1.18c2.29,0,4.09-1.26,4.09-3.92c0-2.23-1.24-4.19-4.78-4.19
			c-0.78,0-2.07,0.05-2.69,0.16v-9.56h8.76v2.07h-6.45v5.37c5.16-0.3,7.52,2.2,7.52,5.88c0,3.63-2.42,6.18-6.21,6.18
			C229.78,528.98,228.36,527.82,228.36,527.82"/>
		<path class="st0" d="M271.38,519.09c0-5.35-1.64-7.9-5.13-7.9s-5.13,2.55-5.13,7.9c0,5.35,1.64,7.9,5.13,7.9
			S271.38,524.44,271.38,519.09 M258.72,519.09c0-6.48,2.61-9.89,7.52-9.89c4.92,0,7.52,3.41,7.52,9.89s-2.61,9.89-7.52,9.89
			C261.33,528.98,258.72,525.57,258.72,519.09"/>
	</g>
	<path class="st0" d="M288.15,513.05l3.04,8.89h-5.91L288.15,513.05z M287.37,509.37l-6.61,19.34h2.29l1.58-4.76h7.23l1.59,4.76
		h2.34l-6.58-19.34H287.37z"/>
	<polygon class="st0" points="313.81,509.47 307.71,517.94 306.37,517.94 306.37,509.47 304.06,509.47 304.06,528.71 306.37,528.71 
		306.37,519.93 307.71,519.93 313.95,528.71 316.66,528.71 309.59,518.74 316.28,509.47 	"/>
	<g>
		<path class="st0" d="M334.88,526.08c0,0,1.85,0.91,4.27,0.91c3.04,0,4.41-1.34,4.41-3.31c0-1.96-1.51-3.01-3.71-3.97
			c-2.55-1.13-4.89-2.5-4.89-5.62c0-2.79,2.15-4.89,6.05-4.89c2.42,0,4.01,0.67,4.01,0.67v2.02c0,0-2.04-0.7-3.98-0.7
			c-2.39,0-3.73,1.13-3.73,2.85c0,1.75,1.34,2.77,3.79,3.76c2.87,1.21,4.81,2.74,4.81,5.61c0,3.09-2.07,5.56-6.8,5.56
			c-2.58,0-4.22-0.89-4.22-0.89V526.08z"/>
	</g>
	<polygon class="st0" points="352.73,509.47 352.73,511.54 358.2,511.54 358.2,528.71 360.52,528.71 360.52,511.54 366,511.54 
		366,509.47 	"/>
	<g>
		<path class="st0" d="M379.16,518.85c2.18,0,3.95-1.4,3.95-4.06c0-2.02-1.29-3.3-3.87-3.3h-2.71v7.36H379.16z M374.22,528.71
			v-19.24h5.13c3.9,0,6.15,2.02,6.15,5.24c0,2.28-1.05,4.46-3.65,5.67l4.76,8.33h-2.58l-4.49-7.84h-3.01v7.84H374.22z"/>
	</g>
	<polygon class="st0" points="395.02,509.47 395.02,528.71 405.18,528.71 405.18,526.64 397.33,526.64 397.33,519.98 403.89,519.98 
		403.89,517.91 397.33,517.91 397.33,511.54 405.18,511.54 405.18,509.47 	"/>
	<polygon class="st0" points="414.42,509.47 414.42,528.71 424.58,528.71 424.58,526.64 416.73,526.64 416.73,519.98 423.29,519.98 
		423.29,517.91 416.73,517.91 416.73,511.54 424.58,511.54 424.58,509.47 	"/>
	<polygon class="st0" points="431.73,509.47 431.73,511.54 437.21,511.54 437.21,528.71 439.52,528.71 439.52,511.54 445,511.54 
		445,509.47 	"/>
	<g>
		<path class="st0" d="M106.26,467.66c-1.99,0-3.9-0.39-5.73-1.18c-1.83-0.79-3.45-1.92-4.86-3.39c-1.4-1.48-2.51-3.28-3.34-5.41
			c-0.83-2.13-1.25-4.53-1.25-7.2c0-2.67,0.41-5.1,1.22-7.27c0.82-2.18,1.94-4.05,3.39-5.62c1.43-1.56,3.11-2.76,5.06-3.61
			c1.94-0.85,4.02-1.27,6.24-1.27c1.65,0,3.14,0.2,4.47,0.61c1.33,0.41,2.61,0.98,3.81,1.72l0.96-1.6h1.88l0.21,11.92h-1.93
			c-0.25-1.16-0.63-2.42-1.13-3.78c-0.5-1.36-1.09-2.51-1.76-3.45c-0.75-1.07-1.65-1.9-2.68-2.51c-1.03-0.61-2.22-0.91-3.55-0.91
			c-1.52,0-2.94,0.34-4.25,1.01c-1.31,0.68-2.44,1.67-3.4,2.99c-0.91,1.27-1.62,2.89-2.14,4.86c-0.52,1.96-0.78,4.16-0.78,6.58
			c0,2.14,0.27,4.1,0.81,5.88c0.54,1.78,1.31,3.35,2.32,4.7c1,1.34,2.19,2.38,3.56,3.14c1.37,0.75,2.91,1.13,4.6,1.13
			c1.27,0,2.44-0.2,3.5-0.6c1.07-0.4,1.99-0.93,2.78-1.59c0.78-0.69,1.47-1.47,2.07-2.35c0.6-0.88,1.08-1.84,1.46-2.88l1.77,0.85
			c-1.35,3.31-3.14,5.68-5.36,7.1C111.99,466.95,109.34,467.66,106.26,467.66"/>
		<path class="st0" d="M164.79,456.92l-0.71,9.94h-26.12v-1.67c0.38-0.03,0.92-0.09,1.64-0.17c0.72-0.08,1.21-0.18,1.5-0.31
			c0.47-0.2,0.81-0.5,1.02-0.9c0.21-0.39,0.32-0.89,0.32-1.51v-23.93c0-0.53-0.09-1-0.27-1.41c-0.18-0.41-0.54-0.74-1.07-0.99
			c-0.36-0.19-0.87-0.37-1.52-0.55c-0.65-0.18-1.19-0.29-1.61-0.32v-1.67h14.11v1.67c-0.44,0.02-1.01,0.09-1.71,0.24
			c-0.7,0.14-1.21,0.27-1.52,0.38c-0.53,0.19-0.9,0.51-1.09,0.97c-0.2,0.46-0.3,0.94-0.3,1.46v22.45c0,1.04,0.05,1.84,0.15,2.41
			c0.1,0.57,0.34,1.02,0.72,1.33c0.36,0.28,0.9,0.47,1.61,0.55c0.71,0.09,1.71,0.13,3,0.13c0.58,0,1.19-0.02,1.81-0.05
			c0.63-0.03,1.22-0.09,1.79-0.19c0.55-0.09,1.05-0.22,1.52-0.39c0.46-0.17,0.8-0.37,1.03-0.62c0.64-0.72,1.39-1.82,2.25-3.29
			s1.45-2.66,1.78-3.57H164.79z"/>
		<path class="st0" d="M200.22,453.2l-5.06-12.97l-4.99,12.97H200.22z M213.67,466.86h-13.89v-1.67c1.22-0.08,2.24-0.24,3.05-0.47
			s1.21-0.53,1.21-0.87c0-0.14-0.02-0.32-0.05-0.52c-0.03-0.2-0.08-0.39-0.14-0.54l-2.77-7.49h-11.73c-0.44,1.1-0.8,2.06-1.07,2.87
			c-0.28,0.82-0.52,1.57-0.74,2.26c-0.21,0.68-0.35,1.23-0.43,1.65s-0.12,0.77-0.12,1.04c0,0.63,0.5,1.12,1.48,1.46
			c0.99,0.35,2.1,0.55,3.34,0.61v1.67h-12.59v-1.67c0.41-0.03,0.92-0.12,1.53-0.27c0.61-0.15,1.11-0.35,1.51-0.6
			c0.63-0.42,1.12-0.87,1.46-1.33c0.35-0.46,0.68-1.1,1.01-1.92c1.68-4.19,3.53-8.9,5.56-14.13c2.03-5.23,3.83-9.88,5.42-13.97h1.88
			l11.14,28.83c0.24,0.61,0.5,1.11,0.8,1.48c0.3,0.38,0.72,0.75,1.25,1.11c0.36,0.22,0.83,0.41,1.41,0.55
			c0.58,0.15,1.07,0.23,1.46,0.25V466.86z"/>
		<path class="st0" d="M250.47,441.95c0-2.02-0.58-3.62-1.74-4.81c-1.16-1.18-2.8-1.78-4.92-1.78h-4.01v14.32h3.09
			c2.17,0,3.97-0.69,5.42-2.08C249.75,446.22,250.47,444.33,250.47,441.95 M262.86,466.86h-9c-1.99-3.12-3.79-5.83-5.4-8.1
			c-1.61-2.28-3.35-4.63-5.23-7.04h-3.42v10.6c0,0.55,0.09,1.03,0.26,1.45c0.17,0.42,0.54,0.74,1.11,0.95
			c0.28,0.11,0.78,0.21,1.48,0.31c0.71,0.1,1.3,0.15,1.79,0.17v1.67h-14.13v-1.67c0.38-0.03,0.92-0.09,1.64-0.17
			c0.72-0.08,1.21-0.18,1.5-0.31c0.47-0.2,0.81-0.5,1.02-0.9c0.21-0.39,0.32-0.89,0.32-1.51v-24.17c0-0.55-0.08-1.04-0.24-1.46
			c-0.16-0.42-0.53-0.75-1.11-0.97c-0.39-0.14-0.9-0.27-1.53-0.39c-0.63-0.12-1.16-0.19-1.6-0.22v-1.67h15.43
			c1.41,0,2.74,0.15,3.98,0.44c1.24,0.29,2.36,0.76,3.37,1.4c0.97,0.63,1.75,1.45,2.33,2.46c0.58,1.01,0.87,2.23,0.87,3.66
			c0,1.29-0.2,2.43-0.59,3.41c-0.39,0.99-0.97,1.85-1.74,2.57c-0.71,0.67-1.56,1.26-2.54,1.75c-0.99,0.5-2.08,0.92-3.27,1.26
			c1.65,2.18,3.02,4.02,4.11,5.51c1.09,1.49,2.43,3.31,4.02,5.44c0.69,0.94,1.31,1.64,1.87,2.08c0.56,0.45,1.11,0.81,1.66,1.1
			c0.41,0.2,0.92,0.36,1.53,0.47c0.61,0.11,1.12,0.17,1.53,0.19V466.86z"/>
		<path class="st0" d="M307.69,457.01l-0.64,9.84h-27.75v-1.67c0.47-0.03,1.1-0.1,1.88-0.2c0.79-0.1,1.29-0.21,1.53-0.32
			c0.5-0.24,0.85-0.54,1.05-0.92c0.2-0.38,0.29-0.86,0.29-1.44v-24.03c0-0.52-0.09-0.98-0.26-1.38c-0.17-0.4-0.53-0.73-1.08-0.98
			c-0.42-0.2-0.99-0.38-1.71-0.54c-0.72-0.16-1.28-0.25-1.71-0.28v-1.67h25.86v8.06h-1.77c-0.31-1.19-0.99-2.46-2.04-3.8
			c-1.04-1.34-2.04-2.08-2.98-2.2c-0.49-0.06-1.07-0.11-1.74-0.14c-0.68-0.03-1.44-0.05-2.31-0.05h-5.25v13.28h3.77
			c1.21,0,2.09-0.11,2.65-0.34c0.56-0.23,1.05-0.61,1.47-1.14c0.34-0.45,0.64-1.06,0.88-1.82c0.24-0.76,0.4-1.48,0.48-2.16h1.77
			v13.1h-1.77c-0.07-0.75-0.23-1.55-0.51-2.39c-0.27-0.84-0.56-1.45-0.86-1.83c-0.49-0.61-1.04-1.01-1.66-1.2
			c-0.62-0.19-1.44-0.28-2.46-0.28h-3.77v10.02c0,1,0.07,1.79,0.21,2.38c0.14,0.58,0.42,1.02,0.82,1.32
			c0.41,0.3,0.97,0.49,1.67,0.58c0.71,0.09,1.71,0.13,3.01,0.13h2.05c0.85,0,1.56-0.03,2.14-0.09c0.6-0.06,1.21-0.18,1.85-0.34
			s1.09-0.39,1.35-0.67c0.72-0.75,1.48-1.9,2.27-3.43c0.79-1.53,1.3-2.66,1.52-3.38H307.69z"/>
		<path class="st0" d="M366.77,466.86H352v-1.67c0.53-0.02,1.22-0.07,2.06-0.17c0.84-0.09,1.42-0.23,1.73-0.4
			c0.49-0.3,0.84-0.64,1.07-1.02c0.23-0.38,0.34-0.87,0.34-1.45v-24.31h-0.35l-11.4,28.48h-1.18l-10.86-29.06h-0.31v19.95
			c0,1.93,0.12,3.4,0.37,4.4c0.24,1.01,0.62,1.73,1.12,2.17c0.35,0.33,1.06,0.64,2.14,0.94c1.08,0.3,1.79,0.46,2.12,0.47v1.67h-13.5
			v-1.67c0.71-0.06,1.45-0.18,2.23-0.36c0.78-0.17,1.38-0.43,1.8-0.78c0.55-0.44,0.93-1.12,1.13-2.03c0.2-0.91,0.31-2.43,0.31-4.57
			v-17.1c0-0.99-0.12-1.8-0.35-2.43c-0.24-0.63-0.57-1.14-1.01-1.53c-0.49-0.42-1.08-0.74-1.79-0.94c-0.71-0.21-1.41-0.32-2.1-0.35
			v-1.67h11.4l9.57,25.09l8.17-20.99c0.3-0.77,0.55-1.58,0.77-2.42c0.21-0.84,0.33-1.4,0.34-1.68h10.9v1.67
			c-0.44,0.02-1,0.09-1.68,0.21c-0.68,0.13-1.18,0.24-1.5,0.35c-0.53,0.19-0.89,0.5-1.08,0.94c-0.19,0.44-0.28,0.92-0.28,1.44v24.1
			c0,0.55,0.1,1.01,0.28,1.39c0.19,0.38,0.55,0.71,1.08,0.99c0.28,0.16,0.79,0.3,1.51,0.44c0.72,0.14,1.29,0.21,1.72,0.23V466.86z"
			/>
		<path class="st0" d="M410.19,461.09c0.88-1.43,1.52-3.05,1.92-4.85c0.4-1.8,0.6-3.82,0.6-6.05c0-2.29-0.22-4.4-0.67-6.31
			c-0.45-1.91-1.1-3.55-1.97-4.9c-0.86-1.33-1.95-2.38-3.25-3.12c-1.3-0.75-2.8-1.12-4.48-1.12c-1.88,0-3.49,0.43-4.8,1.3
			c-1.32,0.86-2.4,2.02-3.23,3.46c-0.79,1.38-1.37,3-1.75,4.85c-0.38,1.85-0.58,3.8-0.58,5.84c0,2.26,0.21,4.3,0.61,6.12
			c0.41,1.82,1.05,3.44,1.93,4.85c0.85,1.38,1.91,2.46,3.2,3.24c1.29,0.78,2.83,1.17,4.62,1.17c1.68,0,3.2-0.39,4.55-1.18
			C408.24,463.6,409.34,462.5,410.19,461.09 M413.7,437.39c1.48,1.54,2.63,3.4,3.46,5.57c0.83,2.17,1.25,4.58,1.25,7.22
			c0,2.65-0.42,5.06-1.27,7.23c-0.85,2.17-2.03,4.01-3.53,5.53c-1.46,1.51-3.16,2.67-5.09,3.49c-1.93,0.82-3.99,1.22-6.17,1.22
			c-2.32,0-4.47-0.44-6.44-1.31c-1.97-0.87-3.66-2.09-5.07-3.64c-1.41-1.52-2.53-3.37-3.33-5.55c-0.81-2.18-1.21-4.5-1.21-6.98
			c0-2.72,0.43-5.14,1.27-7.27c0.85-2.13,2.02-3.97,3.51-5.52c1.48-1.54,3.19-2.72,5.15-3.53c1.95-0.82,4-1.22,6.14-1.22
			c2.21,0,4.3,0.42,6.27,1.25C410.57,434.71,412.27,435.89,413.7,437.39"/>
		<path class="st0" d="M472.33,435.11c-0.44,0.02-1.12,0.14-2.03,0.38c-0.91,0.24-1.56,0.48-1.95,0.73
			c-0.57,0.39-0.95,1.15-1.14,2.26c-0.2,1.12-0.3,2.53-0.3,4.24v24.47h-2.05l-20.26-27.35v17.24c0,1.93,0.12,3.41,0.36,4.45
			c0.24,1.04,0.62,1.77,1.12,2.21c0.36,0.35,1.11,0.67,2.24,0.97c1.13,0.3,1.88,0.46,2.24,0.47v1.67h-13.71v-1.67
			c0.42-0.03,1.14-0.19,2.14-0.46c1-0.27,1.63-0.52,1.88-0.74c0.55-0.44,0.93-1.11,1.13-2.02c0.2-0.9,0.31-2.45,0.31-4.63v-16.46
			c0-0.72-0.13-1.45-0.38-2.17c-0.25-0.72-0.59-1.28-1.01-1.67c-0.57-0.52-1.33-0.96-2.3-1.33c-0.97-0.37-1.75-0.57-2.34-0.6v-1.67
			h9.55l18.79,25.48v-15.89c0-1.95-0.13-3.44-0.38-4.49c-0.25-1.04-0.61-1.74-1.08-2.08c-0.44-0.3-1.16-0.59-2.16-0.87
			c-1-0.28-1.75-0.44-2.27-0.47v-1.67h13.59V435.11z"/>
		<path class="st0" d="M517.66,442.5h-1.62c-0.14-0.57-0.4-1.24-0.77-2.01c-0.37-0.78-0.78-1.51-1.24-2.2
			c-0.47-0.72-0.99-1.35-1.55-1.9c-0.56-0.54-1.1-0.85-1.62-0.93c-0.49-0.06-1.1-0.11-1.84-0.14c-0.74-0.03-1.42-0.05-2.05-0.05
			h-1.37v26.73c0,0.52,0.11,0.99,0.33,1.42c0.22,0.43,0.6,0.77,1.15,1c0.28,0.11,0.88,0.26,1.78,0.45c0.9,0.19,1.6,0.29,2.11,0.31
			v1.67h-15.78v-1.67c0.44-0.03,1.11-0.1,2.01-0.19c0.9-0.09,1.53-0.21,1.87-0.35c0.52-0.2,0.9-0.5,1.14-0.88
			c0.24-0.39,0.37-0.9,0.37-1.54v-26.95h-1.37c-0.49,0-1.09,0.01-1.81,0.04c-0.72,0.02-1.41,0.07-2.07,0.15
			c-0.52,0.06-1.06,0.37-1.61,0.93c-0.56,0.56-1.07,1.19-1.54,1.9c-0.47,0.71-0.89,1.46-1.25,2.25c-0.36,0.79-0.61,1.45-0.75,1.97
			h-1.65v-9.07h29.14V442.5z"/>
	</g>
</g>
</svg>
